HIERARCHY
ROOT Hips
{
	OFFSET 53.933701 -16.431116 94.341499
	CHANNELS 6 Xposition Yposition Zposition Xrotation Yrotation Zrotation
	JOINT spine
	{
		OFFSET 0.000000 -0.448574 7.800591
		CHANNELS 3 Xrotation Yrotation Zrotation
		JOINT spine1
		{
			OFFSET 0.000000 -0.000002 10.136398
			CHANNELS 3 Xrotation Yrotation Zrotation
			JOINT spine2
			{
				OFFSET 0.000000 0.000000 9.712509
				CHANNELS 3 Xrotation Yrotation Zrotation
				JOINT Neck
				{
					OFFSET 0.000000 -1.188875 24.936096
					CHANNELS 3 Xrotation Yrotation Zrotation
					JOINT Head
					{
						OFFSET 0.000000 0.000000 7.533844
						CHANNELS 3 Xrotation Yrotation Zrotation
						End Site
						{
							OFFSET 0.000000 6.014016 18.236099
						}
					}
				}
				JOINT RightShoulder
				{
					OFFSET -4.089649 0.569454 10.488800
					CHANNELS 3 Xrotation Yrotation Zrotation
					JOINT RightArm
					{
						OFFSET 0.000000 -0.000002 13.757004
						CHANNELS 3 Xrotation Yrotation Zrotation
						JOINT RightArmRoll
						{
							OFFSET 0.000000 -0.000002 6.944778
							CHANNELS 3 Xrotation Yrotation Zrotation
							JOINT RightForeArm
							{
								OFFSET 0.000000 -0.000004 20.227692
								CHANNELS 3 Xrotation Yrotation Zrotation
								JOINT RightForeArmRoll
								{
									OFFSET 0.000000 0.000000 7.793121
									CHANNELS 3 Xrotation Yrotation Zrotation
									JOINT RightHand
									{
										OFFSET 0.000000 -0.000004 15.639099
										CHANNELS 3 Xrotation Yrotation Zrotation
										End Site
										{
											OFFSET 0.000000 0.000000 0.100006
										}
									}
								}
							}
						}
					}
				}
				JOINT LeftShoulder
				{
					OFFSET 4.089649 0.569454 10.488800
					CHANNELS 3 Xrotation Yrotation Zrotation
					JOINT LeftArm
					{
						OFFSET 0.000000 -0.000002 13.757004
						CHANNELS 3 Xrotation Yrotation Zrotation
						JOINT LeftArmRoll
						{
							OFFSET 0.000000 -0.000002 6.944778
							CHANNELS 3 Xrotation Yrotation Zrotation
							JOINT LeftForeArm
							{
								OFFSET 0.000000 -0.000004 20.227692
								CHANNELS 3 Xrotation Yrotation Zrotation
								JOINT LeftForeArmRoll
								{
									OFFSET 0.000000 0.000000 7.793121
									CHANNELS 3 Xrotation Yrotation Zrotation
									JOINT LeftHand
									{
										OFFSET 0.000000 -0.000004 15.639099
										CHANNELS 3 Xrotation Yrotation Zrotation
										End Site
										{
											OFFSET 0.000000 0.000000 0.100006
										}
									}
								}
							}
						}
					}
				}
			}
		}
	}
	JOINT RightUpLeg
	{
		OFFSET -6.914162 1.063580 -1.267883
		CHANNELS 3 Xrotation Yrotation Zrotation
		JOINT RightUpLegRoll
		{
			OFFSET 0.000000 -0.000003 18.337799
			CHANNELS 3 Xrotation Yrotation Zrotation
			JOINT RightLeg
			{
				OFFSET 0.000000 0.000004 -22.708504
				CHANNELS 3 Xrotation Yrotation Zrotation
				JOINT RightLegRoll
				{
					OFFSET 0.000000 -0.000004 22.782799
					CHANNELS 3 Xrotation Yrotation Zrotation
					JOINT RightFoot
					{
						OFFSET 0.000000 -0.000003 18.962898
						CHANNELS 3 Xrotation Yrotation Zrotation
						JOINT RightToeBase
						{
							OFFSET 0.000000 -0.000003 15.852005
							CHANNELS 3 Xrotation Yrotation Zrotation
							End Site
							{
								OFFSET 0.006718 0.884892 7.677017
							}
						}
					}
				}
			}
		}
	}
	JOINT LeftUpLeg
	{
		OFFSET 6.914162 1.063580 -1.267883
		CHANNELS 3 Xrotation Yrotation Zrotation
		JOINT LeftUpLegRoll
		{
			OFFSET 0.000000 -0.000003 18.337898
			CHANNELS 3 Xrotation Yrotation Zrotation
			JOINT LeftLeg
			{
				OFFSET 0.000000 -0.000004 22.708405
				CHANNELS 3 Xrotation Yrotation Zrotation
				JOINT LeftLegRoll
				{
					OFFSET 0.000000 -0.000004 22.993393
					CHANNELS 3 Xrotation Yrotation Zrotation
					JOINT LeftFoot
					{
						OFFSET 0.000000 -0.000003 18.752197
						CHANNELS 3 Xrotation Yrotation Zrotation
						JOINT LeftToeBase
						{
							OFFSET 0.000000 -0.000003 15.852005
							CHANNELS 3 Xrotation Yrotation Zrotation
							End Site
							{
								OFFSET -0.030113 0.884892 7.677017
							}
						}
					}
				}
			}
		}
	}
}
MOTION
Frames: 11
Frame Time: 0.041667
54.097298 -16.291512 94.316391 -5.080456 0.253444 -2.673718 -0.629082 0.067604 0.375257 2.745598 0.134270 0.750069 4.390623 0.143253 0.748408 18.280781 2.455955 -1.005827 -15.975234 -5.673758 -1.204511 -26.033746 -80.904526 -29.809073 89.793348 -75.851020 96.248847 0.000001 -0.000000 -0.000000 16.971195 -15.314578 1.697846 -0.000000 0.000007 -3.000000 -5.000200 -7.998811 0.000176 3.419524 66.445815 -2.917285 36.306714 108.504583 -40.559104 -0.000003 -0.000012 -0.000002 39.424344 10.396741 -1.219082 -0.000003 -0.000008 3.000001 -4.999725 7.998745 -0.000041 1.438611 -176.305160 0.924947 -179.999991 0.000005 -0.966999 172.472699 -1.344325 -0.651615 -0.000002 0.000000 -0.028483 68.300683 5.737974 5.111420 25.456962 -7.355615 0.000001 1.461907 178.898350 5.938607 -0.000005 -0.000004 -1.323429 -10.239032 4.795693 0.641030 -0.000004 -0.000003 -0.200550 72.555686 -7.430384 -0.332912 25.456964 7.355616 -0.000001 
54.097397 -16.287712 94.310211 -5.076839 0.248529 -2.660731 -0.630571 0.067376 0.375869 2.744048 0.133271 0.750797 4.389063 0.142273 0.749147 18.266989 2.478545 -1.018466 -15.965646 -5.700353 -1.217808 -26.035095 -80.905872 -29.810422 89.763507 -75.901993 96.348329 -0.000000 -0.000001 0.000000 16.969748 -15.248560 1.678461 -0.000001 0.000008 -3.000000 -5.000202 -7.998811 0.000177 3.451800 66.474044 -2.949685 36.001138 108.485226 -40.428467 -0.000003 -0.000011 -0.000002 39.263363 10.318784 -1.188398 -0.000004 -0.000008 3.000001 -4.999723 7.998747 -0.000042 1.435242 -176.300160 0.926998 -179.999991 0.000005 -0.967000 172.468793 -1.344312 -0.651707 -0.000001 0.000000 -0.028471 68.303087 5.738475 5.110192 25.456952 -7.355614 0.000001 1.458034 178.903350 5.943358 -0.000005 -0.000004 -1.323340 -10.234193 4.794357 0.641017 -0.000003 -0.000003 -0.200508 72.551943 -7.430019 -0.334705 25.456967 7.355615 -0.000001 
54.121296 -16.376118 94.317703 -5.073044 0.243687 -2.647817 -0.632159 0.067136 0.376497 2.742347 0.132212 0.751503 4.387362 0.141235 0.749865 18.253804 2.501492 -1.030959 -15.955848 -5.726957 -1.230943 -26.035721 -80.907040 -29.811010 89.735080 -75.949962 96.449859 0.000001 -0.000001 -0.000000 16.959869 -15.183381 1.658071 -0.000001 0.000008 -3.000001 -5.000200 -7.998812 0.000176 3.483521 66.502970 -2.981379 35.696344 108.464299 -40.296446 -0.000003 -0.000010 -0.000002 39.101528 10.242529 -1.158777 -0.000002 -0.000008 3.000000 -4.999723 7.998745 -0.000042 1.431692 -176.296157 0.929064 -179.999991 0.000005 -0.967000 172.464954 -1.344302 -0.651797 -0.000001 -0.000000 -0.028462 68.305498 5.739045 5.108775 25.456959 -7.355614 0.000002 1.454085 178.907352 5.947976 -0.000004 -0.000004 -1.323240 -10.229255 4.793005 0.641048 -0.000004 -0.000003 -0.200445 72.547913 -7.429489 -0.337092 25.456965 7.355615 -0.000001 
54.117996 -16.359009 94.318001 -5.069138 0.238894 -2.634939 -0.633824 0.066888 0.377137 2.740558 0.131113 0.752192 4.385573 0.140155 0.750566 18.241023 2.524692 -1.043346 -15.945947 -5.753558 -1.243965 -26.035056 -80.907860 -29.810292 89.708524 -75.996031 96.553740 -0.000000 0.000001 0.000001 16.944135 -15.118654 1.636979 0.000002 0.000007 -3.000000 -5.000198 -7.998812 0.000176 3.514847 66.532319 -3.012575 35.392756 108.441923 -40.164173 -0.000002 -0.000012 -0.000003 38.939264 10.167449 -1.130062 0.000001 -0.000008 3.000001 -4.999724 7.998746 -0.000042 1.428032 -176.291144 0.931183 -179.999991 0.000005 -0.966999 172.461170 -1.344289 -0.651886 -0.000001 -0.000000 -0.028453 68.307936 5.739656 5.107267 25.456959 -7.355614 0.000001 1.450069 178.912352 5.952539 -0.000005 -0.000004 -1.323121 -10.224316 4.791622 0.641116 -0.000004 -0.000003 -0.200368 72.543610 -7.428858 -0.339781 25.456965 7.355616 -0.000001 
54.102997 -16.275414 94.311195 -5.065152 0.234132 -2.622078 -0.635527 0.066635 0.377784 2.738707 0.129989 0.752871 4.383723 0.139053 0.751259 18.228452 2.548046 -1.055669 -15.935963 -5.780162 -1.256913 -26.034379 -80.908693 -29.809538 89.683000 -76.040995 96.658904 -0.000000 0.000000 -0.000000 16.925142 -15.054358 1.615590 0.000001 0.000007 -3.000000 -5.000200 -7.998811 0.000177 3.545976 66.561853 -3.043512 35.089390 108.419056 -40.031250 -0.000002 -0.000011 -0.000003 38.776698 10.092979 -1.101995 -0.000002 -0.000008 3.000001 -4.999722 7.998745 -0.000042 1.424300 -176.287141 0.933292 -179.999991 0.000005 -0.966999 172.457359 -1.344278 -0.650978 -0.000001 0.000000 -0.028445 68.310491 5.740315 5.105560 25.456959 -7.355615 0.000002 1.446016 178.916341 5.957038 -0.000005 -0.000004 -1.322990 -10.219478 4.790229 0.641212 -0.000003 -0.000003 -0.200283 72.539184 -7.428172 -0.342568 25.456965 7.355614 -0.000001 
54.114597 -16.306814 94.315804 -5.061151 0.229379 -2.609235 -0.637241 0.066380 0.378432 2.736836 0.128861 0.753548 4.381852 0.137944 0.751949 18.215983 2.571440 -1.067970 -15.925868 -5.806782 -1.269831 -26.033375 -80.909424 -29.808452 89.658145 -76.085767 96.764765 -0.000001 -0.000000 0.000001 16.905249 -14.990028 1.594091 -0.000002 0.000008 -3.000001 -5.000200 -7.998811 0.000176 3.577143 66.591483 -3.074477 34.784736 108.396598 -39.896795 -0.000002 -0.000012 -0.000002 38.614164 10.018603 -1.074420 -0.000001 -0.000008 3.000001 -4.999724 7.998746 -0.000042 1.420560 -176.282128 0.935430 -179.999991 0.000006 -0.966999 172.453589 -1.344266 -0.651067 -0.000001 -0.000000 -0.028438 68.312936 5.740959 5.103958 25.456959 -7.355615 0.000001 1.441954 178.921341 5.961539 -0.000005 -0.000004 -1.322861 -10.214538 4.788835 0.641309 -0.000003 -0.000003 -0.200193 72.534738 -7.427458 -0.345554 25.456967 7.355616 -0.000001 
54.104897 -16.265614 94.314301 -5.057188 0.224613 -2.596373 -0.638933 0.066128 0.379078 2.735007 0.127743 0.754230 4.380022 0.136847 0.752644 18.203414 2.594771 -1.080290 -15.915888 -5.833393 -1.282772 -26.032685 -80.910257 -29.807666 89.633870 -76.131023 96.871084 0.000000 0.000000 0.000000 16.887038 -14.925556 1.572835 -0.000001 0.000008 -3.000001 -5.000200 -7.998812 0.000176 3.608499 66.621009 -3.105670 34.481571 108.373922 -39.764374 -0.000003 -0.000011 -0.000002 38.451889 9.943889 -1.047210 -0.000003 -0.000008 3.000001 -4.999724 7.998746 -0.000042 1.416851 -176.277128 0.937559 -179.999991 0.000005 -0.967000 172.449791 -1.344254 -0.651156 -0.000001 0.000000 -0.028430 68.315374 5.741606 5.102253 25.456962 -7.355614 0.000001 1.437911 178.925329 5.966046 -0.000005 -0.000004 -1.322741 -10.209601 4.787453 0.641394 -0.000003 -0.000003 -0.200112 72.530325 -7.426799 -0.348346 25.456967 7.355616 -0.000001 
54.107197 -16.268913 94.310997 -5.053306 0.219814 -2.583483 -0.640574 0.065882 0.379714 2.733237 0.126656 0.754923 4.378252 0.135779 0.753349 18.190546 2.617919 -1.092663 -15.906003 -5.860020 -1.295786 -26.032382 -80.911172 -29.807325 89.609425 -76.177885 96.976856 0.000001 -0.000000 0.000000 16.873187 -14.860656 1.552123 -0.000002 0.000007 -3.000000 -5.000202 -7.998812 0.000177 3.640262 66.650222 -3.137357 34.177051 108.352789 -39.631633 -0.000004 -0.000011 -0.000001 38.290293 9.868071 -1.020065 -0.000002 -0.000008 3.000001 -4.999725 7.998746 -0.000042 1.413220 -176.273140 0.939642 -179.999991 0.000005 -0.966999 172.445980 -1.343240 -0.651112 -0.000002 -0.000000 -0.028421 68.317813 5.742215 5.100743 25.456957 -7.355613 0.000002 1.433919 178.930343 5.970628 -0.000005 -0.000004 -1.322630 -10.204662 4.786079 0.641452 -0.000004 -0.000003 -0.200038 72.526145 -7.426186 -0.350928 25.456962 7.355614 -0.000001 
54.107197 -16.276617 94.313599 -5.049564 0.214961 -2.570536 -0.642136 0.065645 0.380338 2.731576 0.125615 0.755635 4.376591 0.134758 0.754074 18.177176 2.640804 -1.105135 -15.896321 -5.886647 -1.308915 -26.033058 -80.912333 -29.807970 89.585137 -76.227049 97.082226 0.000001 -0.000001 0.000000 16.866061 -14.795144 1.532194 -0.000000 0.000007 -3.000000 -5.000198 -7.998811 0.000176 3.672591 66.678807 -3.169744 33.873196 108.332421 -39.501419 -0.000003 -0.000010 -0.000003 38.129524 9.790804 -0.992926 -0.000000 -0.000008 3.000001 -4.999727 7.998746 -0.000042 1.409720 -176.268140 0.941716 -179.999991 0.000005 -0.967000 172.442127 -1.343229 -0.651202 -0.000002 -0.000000 -0.028411 68.320238 5.742788 5.099326 25.456960 -7.355614 0.000001 1.429985 178.935329 5.975304 -0.000005 -0.000004 -1.322531 -10.199823 4.784724 0.641477 -0.000004 -0.000003 -0.199981 72.522231 -7.425674 -0.353109 25.456967 7.355616 -0.000001 
54.110798 -16.266514 94.313400 -5.046013 0.210031 -2.557525 -0.643584 0.065422 0.380943 2.730077 0.124638 0.756372 4.375091 0.133801 0.754822 18.163199 2.663302 -1.117744 -15.886846 -5.913281 -1.322202 -26.035011 -80.913850 -29.809958 89.560555 -76.279505 97.186550 -0.000000 0.000001 0.000001 16.868125 -14.728852 1.513317 -0.000000 0.000007 -3.000000 -5.000197 -7.998812 0.000177 3.705756 66.706872 -3.203147 33.569410 108.313871 -39.373722 -0.000003 -0.000011 -0.000002 37.969937 9.711489 -0.965585 -0.000000 -0.000008 3.000001 -4.999719 7.998746 -0.000042 1.406411 -176.264124 0.943721 -179.999991 0.000005 -0.966999 172.438207 -1.343216 -0.651294 -0.000002 -0.000000 -0.028399 68.322731 5.743222 5.098181 25.456959 -7.355616 0.000003 1.426143 178.940328 5.980090 -0.000004 -0.000004 -1.322450 -10.194986 4.783408 0.641445 -0.000004 -0.000003 -0.199948 72.518618 -7.425389 -0.354704 25.456965 7.355615 -0.000001 
54.117195 -16.279913 94.314293 -5.042705 0.205005 -2.544421 -0.644889 0.065216 0.381525 2.728777 0.123745 0.757142 4.373781 0.132925 0.755601 18.148316 2.685303 -1.130523 -15.877681 -5.939915 -1.335697 -26.038334 -80.915701 -29.813366 89.534819 -76.335956 97.288723 0.000000 0.000000 0.000000 16.882146 -14.661389 1.495749 0.000000 0.000008 -3.000000 -5.000200 -7.998811 0.000177 3.739856 66.733906 -3.237716 33.262977 108.298913 -39.246356 -0.000002 -0.000010 -0.000003 37.811746 9.629534 -0.937830 -0.000002 -0.000008 3.000001 -4.999723 7.998746 -0.000042 1.403332 -176.259124 0.945692 -179.999991 0.000005 -0.967000 172.434204 -1.342215 -0.651257 -0.000002 -0.000000 -0.028383 68.325101 5.743571 5.097425 25.456959 -7.355614 0.000001 1.422431 178.945328 5.985034 -0.000005 -0.000004 -1.322400 -10.190150 4.782133 0.641339 -0.000004 -0.000003 -0.199941 72.515429 -7.425317 -0.355605 25.456957 7.355615 -0.000001 
